/* XPM */
static char *_6e569544a224cd7dc847336fea7e56bOzdbl0HBQWieBh5T[] = {
/* columns rows colors chars-per-pixel */
"36 36 127 2 ",
"   c #0F8D03",
".  c #178604",
"X  c #138C04",
"o  c #1C8D05",
"O  c #0F9404",
"+  c #0A9C03",
"@  c #159405",
"#  c #1D9206",
"$  c #1C9A06",
"%  c #248F07",
"&  c #258E09",
"*  c #2F8F0B",
"=  c #3B870F",
"-  c #358E0D",
";  c #3C8B0F",
":  c #229506",
">  c #249A07",
",  c #259408",
"<  c #2B9609",
"1  c #259B08",
"2  c #2D9B0A",
"3  c #31950B",
"4  c #3D960E",
"5  c #339C0B",
"6  c #3B9D0D",
"7  c #3F8711",
"8  c #1DA307",
"9  c #20A006",
"0  c #24A208",
"q  c #2CA209",
"w  c #25AB08",
"e  c #2CAB09",
"r  c #34A30B",
"t  c #3CA30D",
"y  c #35AA0C",
"u  c #3CAB0D",
"i  c #31B10A",
"p  c #3CB10D",
"a  c #40950F",
"s  c #419E0F",
"d  c #438612",
"f  c #439B11",
"g  c #4B9D14",
"h  c #41A40F",
"j  c #42A90F",
"k  c #40AA0F",
"l  c #42AB0F",
"z  c #41A80F",
"x  c #44AB0F",
"c  c #41AD0F",
"v  c #42AF0F",
"b  c #43AF0F",
"n  c #41AB0F",
"m  c #41B10E",
"M  c #41B10E",
"N  c #43A110",
"B  c #45A010",
"V  c #47A111",
"C  c #44A310",
"Z  c #44A510",
"A  c #47A411",
"S  c #44A610",
"D  c #44A710",
"F  c #46A610",
"G  c #47A711",
"H  c #46A410",
"J  c #49A312",
"K  c #49A511",
"L  c #4BA711",
"P  c #4FA412",
"I  c #4DA712",
"U  c #4BA511",
"Y  c #43A810",
"T  c #46A810",
"R  c #44AA10",
"E  c #46AA10",
"W  c #47AA10",
"Q  c #45AC10",
"!  c #47AD10",
"~  c #45AE10",
"^  c #46AA10",
"/  c #49A811",
"(  c #49AB11",
")  c #4BA912",
"_  c #4DAB12",
"`  c #4FAA13",
"'  c #48AE10",
"]  c #4AAF11",
"[  c #4CAD12",
"{  c #4FAC12",
"}  c #4FAF12",
"|  c #4CAB12",
" . c #51A014",
".. c #58A715",
"X. c #52AD14",
"o. c #53AE14",
"O. c #55AD14",
"+. c #54AE14",
"@. c #46B010",
"#. c #46B110",
"$. c #44B310",
"%. c #45B410",
"&. c #46B110",
"*. c #48B110",
"=. c #4BB112",
"-. c #4CB012",
";. c #4DB212",
":. c #4EB312",
">. c #4FB313",
",. c #48B510",
"<. c #4AB711",
"1. c #4CB312",
"2. c #4FBC12",
"3. c #50B012",
"4. c #51B513",
"5. c #52B413",
"6. c #57B115",
"7. c #53B714",
"8. c #52B413",
"9. c #50B912",
"0. c #57B914",
"q. c #54B913",
"w. c #5AB915",
"e. c #5DBA16",
"r. c #5ABE15",
"t. c #5DBC16",
"y. c #53C113",
/* pixels */
"5.2 z 7 t 2 > r z t z z r t r r r h K 2 y #.R r 1 5 / z h 3 r 2 < t , < ",
"m y < u t O / t < $ , J < 5 R 6 Z < 5 N 5 C 1 @ 2 2 z 3 r X.t Z < 2 2 , ",
"C } z 2 Z @ r.3 t 2 t 6 : y 1 , t 2 t C 5.z t u u # ! r r -.< 2.q < 2 N ",
"q t , u ` h 9.t 6 t r 1 p R 2 0.R q 5 t K 3.C 9.> # 6 t C g 2 z r 6 w r ",
"r r y.Y 6 / t h t r r < r Z q O.6 1 y x 2 6 t t K / m ` 5 Y 5 x q -.1 t ",
"z $ 6 h t Z 0 6 u 5 t / t 5 , Z s z t h r / 5.2 6 / r z 6 s 2 r u 4 ! u ",
"u -.z r 6 p u ,.z * Z r > r r z q 5 N %.5.] < 0 X.5 $ 6 # 5 . 3 X.6.z , ",
"6 I 6 t 5 t z 2 5 ! 6 2.5 < u o 6 5 t t N 5 o # 5 3 6 6 t < # ] u 2 h q ",
"r t < q t = t 1 r r Z 5 z t z 1 t r ! # 6 : 5 6 r u s w.r q 5 t 5 b ..r ",
"/ < 3 z x f I < t 5 t r -.y 6 , R 5 5 6 t 6 h u t X b u / 2 t 6 3 / t 5 ",
"2 X.5 y 3 5 t , O ! : 3 < z Z e r 6 6 h ] } #.b s 5 5 ] t t 5 t =.1 ` 6 ",
"R ! & b t r b 8 0.u X t < 2 f 2 Z r q #.I q 1 f 3 ,.z 5 q t 3.5 < 2 t   ",
": / r m / t 2 3 5 5 2 6.< q r t r 6 t 6 5 e 5 r z Z } , 6 3 5 t t e u z ",
"t < =.t Z t < w.2 r 3 z < t 4 / 2 t r t #.3 5 r e.q z q ` t 5 t : 3.5 z ",
"/ t ` -.} =.K t q : t $ h t t q 2 y 2 -.p 5 z 2 I 5 z t r ! < q # R t 1 ",
"C C 3 , X.p Z r 3.6 -.# 5.! 5 K < > q 5 < z 2 X t , u 5 $ r 3 > t t 0.z ",
"5 b < z u 6 2 r 5 a 6 0.} b $ =.R z % Z < r R z Z p 0.Z 6 > 6 < u I R 2 ",
"t / Z 1 z z r 5 $ t 6 I g 3 X 5 s t -.=.Z < 5 6 z 9 h u / h u 9 5 7.t < ",
"t K r @ q t 0.1 2 r r t t r 5 4 y : u 2 z C z 6 z 5 2 5 t b < % u 3 ` < ",
"6 u 6 # t z q J z y < u t R t u $ u < 3 < q b 1 Z < < 5 I / r -.u 1 Z 6 ",
"r < 2 t #.5 y u < 3 ,.2 2 r 2 q -.u 5 J -.Z 5 < < #.7.r u e.5 5 @ h u z ",
"u r 6 r b R 0 3 r < p 5 Z < t t h 6 r 4 %.Z < t + / y 3 Z 3.t 2 t } @ t ",
"5 2 r 5 < 6 2 r r t h C Y -.3 u R R z t m Y ,.: @ ` 2 x r 0 @ u 2 5 r 6 ",
"#.X 2 q r 6 2 3 t 6 R z 5 t 5 < t 5 r R 3 3 5 p e t t h C < 5 R m 2 t ! ",
"g , p r t $ R 0 2 g 6 @ h t 6 $.t.t : J t 2 Y / $ u t z 5 b h s z 3 3 s ",
"u t : 3 t 6 5 z < 5 z K z 6 u 2 C Y 5 ! < u r ! , t 3 t y / r > $ # g f ",
"u z < 6 5 2 1 R Z < r t h q u 2 e ` r / 1 C , 3 2 5 6 R t } 6 t o 0 y z ",
"6 z u 6 0 0 7.R > q t t t t t u t u R u u r s r < z 6 5 5 7.< t 6 6 3.5 ",
"5.r i  .1 < K 7.y : t t Z 6 t : t r 8 o 3 3 h 6 z 5.u t t b r b 5 u 5.b ",
"t 6 & x 6 r.2 t 3 ` u 3 z 6 u < 1 r q , 5 t 2 t u q K 6 < e.3 q e O., 5 ",
"r ] u t r r 2 b } 9.] ! h 2 z 2 < t 5 u @ r 3 6 , t u y 5 < < 2 < : } #.",
"h C z 6 t & , Z s I h q 3 t 6 1 2 t 5 h 2 t 2 6 5 u 2 , < : r t C - t t ",
"r z K ! 3 -.3 2 u 3 6 X r 6 C 6 2 t t t r t < =.t 6 y t < 2 2 ] C C ! R ",
"5 t q Z 5 2 # % 5 u : b 2 r 5 C d 6 z ,.r t 6 2 f u I t 3 u r 5 O.< 2 s ",
"#.y 5 1 Z < u -.; f X < 2 3 y : r q R < X.5 2 # 2 / t y z -., 6 R $ z y ",
"z ! r 3 t Z $ 2 t y R u 5 ! z > h t 5.r o 3 t u t 3 6 t 2 z u y t < 2 < "
};
