/* XPM */
static char *cb38cdf6e9944a29f5e0ea65179c8186sRUEPNiCNsoQeduj[] = {
/* columns rows colors chars-per-pixel */
"36 36 207 2 ",
"   c #397E2C",
".  c #3B7A35",
"X  c #336D2E",
"o  c #43573B",
"O  c #4A462D",
"+  c #665B29",
"@  c #527C2E",
"#  c #417735",
"$  c #72652C",
"%  c #767839",
"&  c #617838",
"*  c #394D4F",
"=  c #3A534E",
"-  c #3D5B4A",
";  c #385447",
":  c #3C5454",
">  c #3E5857",
",  c #3B6748",
"<  c #405D55",
"1  c #405C59",
"2  c #46684B",
"3  c #4D7C43",
"4  c #46794F",
"5  c #4C764B",
"6  c #527E46",
"7  c #597C4C",
"8  c #517848",
"9  c #406155",
"0  c #43635C",
"q  c #456A5C",
"w  c #456C54",
"e  c #5F6D5F",
"r  c #497F57",
"t  c #48765C",
"y  c #4A7C5B",
"u  c #457357",
"i  c #587859",
"p  c #6C7949",
"a  c #787A49",
"s  c #64765C",
"d  c #657C5C",
"f  c #697A57",
"g  c #767C57",
"h  c #476D61",
"j  c #486F62",
"k  c #4A6C68",
"l  c #477261",
"z  c #4A7564",
"x  c #4C7C63",
"c  c #4B7268",
"v  c #647560",
"b  c #667B61",
"n  c #6B7965",
"m  c #717D65",
"M  c #857938",
"N  c #078E00",
"B  c #1B8F03",
"V  c #138804",
"C  c #0D9301",
"Z  c #129502",
"A  c #1B9501",
"S  c #159A01",
"D  c #1A9B02",
"F  c #1D990B",
"G  c #298F0D",
"H  c #388B08",
"J  c #239402",
"K  c #2A9604",
"L  c #239B02",
"P  c #2C9C03",
"I  c #24950C",
"U  c #319504",
"Y  c #349D05",
"T  c #3A9D06",
"R  c #339A0E",
"E  c #3C9C0B",
"W  c #34920E",
"Q  c #388D19",
"!  c #2D9613",
"~  c #359B1B",
"^  c #389E15",
"/  c #298117",
"(  c #1BA001",
")  c #25A202",
"_  c #2DA303",
"`  c #25AC02",
"'  c #34A405",
"]  c #3BA406",
"[  c #33AA04",
"{  c #3CAC06",
"}  c #3CA40D",
"|  c #3EAB0C",
" . c #2DB203",
".. c #3CB206",
"X. c #34B204",
"o. c #3EAA10",
"O. c #328426",
"+. c #3C8D24",
"@. c #3B8231",
"#. c #3A8C34",
"$. c #3A9228",
"%. c #429E09",
"&. c #4C9D0C",
"*. c #4A9C19",
"=. c #40A107",
"-. c #41AB07",
";. c #44A409",
":. c #4CA50B",
">. c #44AA08",
",. c #4BAB0A",
"<. c #53AE0C",
"1. c #50A10D",
"2. c #42B107",
"3. c #45B208",
"4. c #4CB30A",
"5. c #4EBA0A",
"6. c #52B40C",
"7. c #54B90C",
"8. c #5BBE0E",
"9. c #47A517",
"0. c #55A01E",
"q. c #54B414",
"w. c #4B992B",
"e. c #49843A",
"r. c #578938",
"t. c #4B9737",
"y. c #579536",
"u. c #649A3F",
"i. c #48A327",
"p. c #5AA035",
"a. c #61A33B",
"s. c #6DB33F",
"d. c #74B73E",
"f. c #7DBB3C",
"g. c #52C20B",
"h. c #4F8544",
"j. c #488947",
"k. c #5D8B4B",
"l. c #5A8248",
"z. c #4E984E",
"x. c #4D9348",
"c. c #549F46",
"v. c #549C4D",
"b. c #5A9E4D",
"n. c #549548",
"m. c #4D8756",
"M. c #4D8C55",
"N. c #4C835D",
"B. c #4E8C5B",
"V. c #528C5C",
"C. c #558956",
"Z. c #4E9254",
"A. c #539652",
"S. c #539951",
"D. c #5A9A53",
"F. c #529058",
"G. c #6A9948",
"H. c #649449",
"J. c #7E9148",
"K. c #658558",
"L. c #7A8458",
"P. c #6E915E",
"I. c #709D56",
"U. c #5DA947",
"Y. c #56A34B",
"T. c #5BA449",
"R. c #5AA051",
"E. c #61AA46",
"W. c #63AC44",
"Q. c #61A44B",
"!. c #69A84A",
"~. c #6BAA47",
"^. c #67B042",
"/. c #6BB142",
"(. c #71B440",
"). c #7BB641",
"_. c #4D8362",
"`. c #538C62",
"'. c #5D9270",
"]. c #658563",
"[. c #7AA567",
"{. c #B0AC0E",
"}. c #B3AC1F",
"|. c #8B803D",
" X c #9E8A3C",
".X c #90833D",
"XX c #8B9331",
"oX c #82BF39",
"OX c #84BF39",
"+X c #82BF3A",
"@X c #81B03A",
"#X c #C7B611",
"$X c #85C039",
"%X c #85C039",
"&X c #CFC812",
"*X c #978C45",
"=X c #919251",
"-X c #918A44",
";X c #81907A",
":X c #829B63",
">X c #83AE61",
",X c #6C968A",
"<X c #8A9C97",
"1X c #9EA69D",
"2X c #99BAA9",
"3X c #B2CEB5",
"4X c #ACCEAC",
/* pixels */
"6.P ] H ] P L _ { ] { { _ ' ' R ~ n.v.~ [ 3.>.' L Y ,.] ] U _ P K ] A L ",
"..[ K { ] C >.] L S L ;.J Y i.Q.(.f.oX).A.w.L C P P { P Y <.] >.L P P A ",
";.4.-.P ;.Z 8.P ] P ' T D [ x.oX%X%X%XoXOX^.$.{ { S 3._ ' 4.P 5.) L P =.",
"_ ] A [ ,.] 5.] T ] ' L o.t.A.f.%X%X%XoXf.T.v.q.D A T { ;.&.P ;.' ' ` _ ",
"' ' g.>.T >.] ] ] ' _ G v.(.f.oX%X%X%Xf.T.v.Q.j.,.,...,.Y >.Y -._ 4.L ] ",
"-.S T ] ' >.( ] ..P ] w./.oXoXf.OX%XoX%Xf.^.T.v.x.,.' { T E L _ { T -.{ ",
"[ 4.-._ T X.{ 3.-.K ;.~ A.W.f.W.f.f.W.(.s.A.B.T.Z.R S T A ' V P <.6.-.J ",
"] ,.T ] Y ] -.P ' w.R.B.(.OXoXD./.oX/.^.S._.Y.T.N., W T ] K A 3.[ P =.) ",
"' ] L ) ] H ] L $.!.d._.T.f./.F.B.A.S.T.b.v.T.Z.j 0 N.q._ ) P { P { <.' ",
">.P U { -.%.:.J t.W.d.T.Y.T.T.Y.Z.j h A.v.Y.U.V.0 M._.@.,.P { T P >.' _ ",
"P <.Y [ U Y ] I c.f.T.T.T.W.W.v.t j t m.^.B._.h Z.Z.l   { ] Y { 3.L ,.T ",
">.3.J 2.' [ | /.f.OXf.f.f.S.T./.W.W.d.oXoXC.0 0 x x k . _ ] 4.Y K P ] N ",
"A ,.' ..>.{ #.Q.f.oX%X%Xf.W.S.W.T.f.d.f.W.m.r T.v.B.N.w E P P ] ] ` { ] ",
"] K 4.' >.' #.B.W.W.f.d.oXb._.B.b.W.Y.W.z.Y.U.W.U.Z.W.S.# ' Y ' A 4.Y ;.",
",.' ,.4.,.4.t.Q.T.B.B.W.W.T.S._./.d./.d./.W.b.B./.T.Y.N.q >.J _ A >.{ L ",
";.;.P J <.i.Y.f.(.W.B.W.s./.~.k D.W.d.Z.b.V.x N.^./.Y.Z.q   P D ' ] 7.] ",
"P ..L { { j.T.W.f.(./.W.!./.)._.z `.4X'.,Xc y v.W.v.T.B.q X T P ..:.>.P ",
"] >.;.L ] +._.B.U./.!._.b.T.W./.A.].3X[.>XN.W.U.T.B.B.N.1 9 } ( Y 7.] L ",
"] ,._ Z ! n.Y.Z.B.B.v.(.W.(.s.W.y w K.3X2Xv.U.T.M.y 0 B.0 1 / J [ P ,.K ",
"T { ] A @.T.W.U.v.Y.Y.(./.d./.~.t N.x k.Q./.d.!.0 < N.Z.0 0 O.4...L >.] ",
"' P L ] @.S./.s.W.U.T.W.W.T.z.z.S.W.W.s./.f./.M.r B.B.0 x > G P Z ] { { ",
"[ ' T [ o.w C.m.T.Y.N.x T.B.V.T.(.f.W.(.v.T.v.S.: x z z q > R P ' <.Z ] ",
"P P _ P P . z v.W.^.T.q l l z V.W.W.T.U.T.Y.u : * 1 B.y > > V { L _ ' ] ",
"2.C L _ _ +.x S.s./.W.Z.0 1 0 q _.x F.V.D.r r y h l B.t > ; Y -...P ] -.",
"&.J .._ ] A < S.T.W.v.W.W.T.S.> * 1 0 0 z l B.y M.Z.x 1 > - E =.-.Y P %.",
"{ ' A P ' T ! u c x W.W./.T.Z.> > h z N.x Z.r q y x 0 - , *.' L ( A &.%.",
"{ { L T T a.@XH.4 4 T.W.W.v.N.N.x Z.x N.Z.u > 1 1 > = Q ] ,.T ] B ) [ -.",
"' { ..T ) t.I.C.F ! j.r m.q 0 M.Z.N.h h 1 > : * - @ {.:.Y 7.K ] T T 4.P ",
"6._  .1.L J 9.q.o.w.c.h.2 2 9 : < > : * > > o X *.&X#Xr.} { ' { Y ' 5.{ ",
"] T J -.T 8.P } H.k.h.k.i s 7 ; = > > O o 3 3 6 b  XXX}.y.8.P )  .<.J P ",
"' 4.{ ] _ ' _ >.u.k.5 d s s v p % $ + $ & l.f 6 f *X XXXh.K L ) J A ,.3.",
"] ;.-.T ' J J p.k.G.K.s v v b L..X*XM M % l.6 7 e g J.r.Q A _ ] ;.U ] ] ",
"[ -.,.-.P 4.K ^ G.l.K.e e v f .X*X*XM |.M l.3 P.].n l.y.J P P 3.;.;.-.>.",
"Y ' _ >.P P A B u.5 3 b b v s p =XM -Xa p l.7 1X;X:X0.' P ..[ Y <.K P =.",
"2.[ P L >.K { 4.H *.O.e.e.d b L.p m a 8 a m 3 m <X2X9.[ { 4.J T >.S -.[ ",
"-.-._ P ] >.S P { [ >.{ Y y.K.i i K.K.h.. r.y.e.k.c.E ] P ] { [ ] P P J "
};
