/* XPM */
static char *_9b7ea52171b423ebe68f520c6275416MT98LbfrPeZrXWBk[] = {
/* columns rows colors chars-per-pixel */
"36 36 203 2 ",
"   c #4E290C",
".  c #552807",
"X  c #482914",
"o  c #582D12",
"O  c #5C3C1B",
"+  c #583713",
"@  c #443C0C",
"#  c #732C01",
"$  c #633203",
"%  c #6D3802",
"&  c #733901",
"*  c #643414",
"=  c #673C18",
"-  c #783B1E",
";  c #5B3920",
":  c #622E21",
">  c #693727",
",  c #763F2E",
"<  c #7C3F39",
"1  c #3E7909",
"2  c #337804",
"3  c #5D411C",
"4  c #5A5C16",
"5  c #78400A",
"6  c #654915",
"7  c #754B17",
"8  c #675817",
"9  c #705617",
"0  c #4B610C",
"q  c #456B0C",
"w  c #48770D",
"e  c #526111",
"r  c #596112",
"t  c #566C14",
"y  c #587412",
"u  c #626E16",
"i  c #667515",
"p  c #5E4023",
"a  c #704B2A",
"s  c #785728",
"d  c #8C3D01",
"f  c #853602",
"g  c #883D37",
"h  c #944600",
"j  c #964C06",
"k  c #964C07",
"l  c #8E570D",
"z  c #9C5507",
"x  c #8A5010",
"c  c #AB5904",
"v  c #A7590B",
"b  c #B95902",
"n  c #A75D16",
"m  c #8E6116",
"M  c #85750B",
"N  c #A16806",
"B  c #BC6406",
"V  c #AE6211",
"C  c #B86415",
"Z  c #B07418",
"A  c #BB711D",
"S  c #8C4938",
"D  c #945332",
"F  c #894D25",
"G  c #A45E24",
"H  c #936634",
"J  c #A66B28",
"K  c #BE7531",
"L  c #C05100",
"P  c #C46A05",
"I  c #C66A0D",
"U  c #D1740A",
"Y  c #C67319",
"T  c #D87915",
"R  c #C76F18",
"E  c #E26F01",
"W  c #ED7F19",
"Q  c #DE7922",
"!  c #C57A30",
"~  c #C37625",
"^  c #955542",
"/  c #A15842",
"(  c #8F7544",
")  c #C7774A",
"_  c #0D8C01",
"`  c #078E00",
"'  c #198E01",
"]  c #108700",
"[  c #0E9401",
"{  c #149401",
"}  c #1C9501",
"|  c #149901",
" . c #1C9C02",
".. c #238E02",
"X. c #2B8E04",
"o. c #398A07",
"O. c #3A8908",
"+. c #239502",
"@. c #2B9603",
"#. c #249B02",
"$. c #2B9C03",
"%. c #309504",
"&. c #3D9406",
"*. c #339D04",
"=. c #3A9D06",
"-. c #3F9B08",
";. c #1DA402",
":. c #15A503",
">. c #24A202",
",. c #2CA303",
"<. c #2CAB03",
"1. c #22AB02",
"2. c #34A304",
"3. c #3BA306",
"4. c #33AA04",
"5. c #3CAB06",
"6. c #3FA108",
"7. c #2DB203",
"8. c #36B105",
"9. c #3EB106",
"0. c #468E0A",
"q. c #47890B",
"w. c #52870E",
"e. c #4B9E0C",
"r. c #439C0A",
"t. c #5B8612",
"y. c #41A307",
"u. c #41AB07",
"i. c #44A509",
"p. c #4AA60A",
"a. c #45A908",
"s. c #4AAC0A",
"d. c #52AD0C",
"f. c #56A80E",
"g. c #43B107",
"h. c #46B208",
"j. c #4CB30A",
"k. c #4DBB0A",
"l. c #52B30C",
"z. c #54BA0C",
"x. c #5BBC0E",
"c. c #52C20B",
"v. c #C18016",
"b. c #D68919",
"n. c #D79717",
"m. c #FE9207",
"M. c #EF8516",
"N. c #F38A1E",
"B. c #EE9B14",
"V. c #FA9C17",
"C. c #FCAF1D",
"Z. c #FFB91D",
"A. c #DA8221",
"S. c #DD9223",
"D. c #D08436",
"F. c #CD8739",
"G. c #F58727",
"H. c #FB9728",
"J. c #E98534",
"K. c #F88A39",
"L. c #ED9932",
"P. c #F49332",
"I. c #F79D32",
"U. c #EC8A27",
"Y. c #FDA229",
"T. c #FEBB2A",
"R. c #FFAC3C",
"E. c #FCA43C",
"W. c #FFB239",
"Q. c #B1854F",
"!. c #C88954",
"~. c #DE8251",
"^. c #CF945B",
"/. c #D18849",
"(. c #FF9F45",
"). c #FFAD43",
"_. c #FBA24A",
"`. c #FFB447",
"'. c #FFB24C",
"]. c #FAAE5C",
"[. c #FFB959",
"{. c #FF9E63",
"}. c #D6AB7C",
"|. c #E6AA6B",
" X c #FEA765",
".X c #EEB168",
"XX c #FEB761",
"oX c #FEB26B",
"OX c #FEBD69",
"+X c #FFAF73",
"@X c #FFB877",
"#X c #E8B278",
"$X c #FEC055",
"%X c #FEC165",
"&X c #FEC878",
"*X c #FFB882",
"=X c #E4B681",
"-X c #FBC587",
";X c #FECE88",
":X c #F8C794",
">X c #FDDDAA",
",X c #FFE4B6",
"<X c #FCEDC8",
/* pixels */
"l.$.5.O.3.$.#.,.u.3.5.u.,.2.2.,.2.y.p.>.4.g.a.2.#.*.s.5.3.%.,.$.$.3.} #.",
"9.<.+.5.3.[ a.3.#.| +.i.+.*.a.=.i.#.*.y.*.i. .[ $.$.u.$.*.d.3.a.#.$.$.+.",
"i.j.5.$.i.{ x.$.3.$.2.*.} 4.#.+.2.$.3.i.j.5.3.5.5.| h.,.2.j.@.k.>.#.$.6.",
",.3.} 8.s.3.k.3.*.3.2.#.9.a.$.x.a.>.*.3.i.j.i.z. .} *.5.i.e.$.y.2.2.1.,.",
"2.2.c.a.=.s.3.y.3.2.,.+.2.a.>.d.=.#.4.u.#.=.5.3.s.s.9.s.*.a.*.u.>.j.#.3.",
"u.| 2.6.2.a. .3.5.$.3.s.3.*.+.a.-.5.3.3.2.p.z.>.3.s.2.5.=.-.>.,.5.=.g.5.",
"4.j.5.,.=.8.5.h.5.X.i.4.} ,.4.5.>.$.i.g.l.j.$.>.l.*.| =.{ 2.] $.l.z.u.+.",
"3.s.*.3.*.3.5.$.2.u.3.k.*.#.5._ 2.$.2.2.i.2.' { $.$.*.=.3.@.} h.4.$.y.>.",
"2.3.#.>.3.O.3.#.2.,.a.*.u.3.u.X.M N z 6 y } *.2.,.5.6.x.,.>.$.5.$.u.f.2.",
"h.@.%.5.u.r.p.+.3.*.2.2.j.4.0.l $ d L b k r -.9.3._ 9.5.s.$.5.2.$.s.2.$.",
"$.d.*.4.%.*.3.} [ g.} @.#.i.m = n ~ T E U J y u.-.*.*.h.5.3.*.5.j. .s.*.",
"a.h...g.2.4.5.:.z.5._ 3.#.i |.].-X'.W.m.Y.E.H q.$.k.y.*.,.3.j.*.@.$.5.` ",
"} s.2.9.s.5.#.$.$.*.$.l.X.Q.@X<X>XI.v.N N Z !.4 5.i.s.+.=.$.*.3.5.1.5.5.",
"3.@.j.2.i.2.#.z.$.4.$.u.t =XOX;X'.R.W.C.n.Z + 3 f.>.5.>.s.2.*.2.} j.*.y.",
"s.4.s.j.s.j.i.2.>.} 3.| ( ;X&X%X`.R.H.C.Z.V.7 X u ,.5.3.2.u.+.,.} a.5.#.",
"y.i.$.+.l.8.a.2.j.3.j.2 }.&X$X[.`.H.H.Y.T.B.L.a 6 ..5.*.| ,.$. .2.3.z.5.",
"$.5.#.5.5.2.$.4.$.&.*.8 }.H J ).I.A.Y A T.n.S..XO 3.z.u.*.} =.#.5.s.a.$.",
"3.a.i.#.5.u.2.=.} 3.&.O ; ! K F o * n U.V.b.b.].}.w 3.5.s.3.5. .*.l.3.#.",
"5.s.,.[ <.3.z.#.$.,.&.p ^.S ^ , D J.J.G.P.U T _.-X8 $.*.3.u.+.+.5.$.s.@.",
"=.5.=.} 2.u.<.p.u.4.1 }., < S !.oX XK.P.:XD.P A..Xs %.*.p.s.2.j.9.#.a.3.",
"2.#.#.3.h.*.<.5.+.@.t.> > g ) oX,X*XG.P.#XF.B c /.s l.2.5.x.$.*.{ 3.5.5.",
"5.2.=.4.9.a.>.%.2.#.w.X > / XX*X+X{.K.W Y R c h G 7 4.$.i.l.2.$.2.d.{ 3.",
"$.$.,.$.$.=.$.2.2.5.q.  : /._.+X X~.K.T B c j d f 8 $.u.2.;.{ 5.$.,.2.3.",
"g.[ #.>.,.=.$.$.2.*.p.+ * J.(.[.XX) - k n z h I # w 3.6.i.#.*.u.9.$.5.u.",
"e.+.9.,.3. .a.;.$.e.3.e 5 U N.R.).K.C $ $ $ v V + 6.3.u.*.5.3.y.u.*.$.6.",
"5.2.} $.2.=.$.5.#.*.u.p.9 I T M.G.Q v j & % h   1 3.$.3.4.s.2.#. .} e.r.",
"5.u.#.3.*.$. .a.a.#.2.2.0.9 C P P B c & & j . q >.*.=.a.2.s.2.3.' >.4.u.",
"2.5.9.=.;.;.z.a. .,.2.3.3.-.r m V c j d . @ w.2.@.5.*.$.*.z.@.3.=.*.j.$.",
"l.,.7.p.#.+.p.z.4.+.3.5.a.2.2...w e 0 0 O.@.y.=.5.l.9.2.3.9.2.u.*.2.l.9.",
"3.=...u.*.x.$.3.@.s.8.$.u.*.5.#.#.,.>.+.*.5.$.2.8.>.i.=.#.x.$.>.<.l.+.*.",
"2.j.5.3.,.2.#.5.j.z.j.h.3.$.5.$.+.3.*.5.| ,.$.*.} 4.5.4.*.$.#.>.+.} s.h.",
"3.i.5.2.3.+.+.p.-.p.5.>.*.2.3.#.#.5.,.y.$.3.$.=.*.5.$.+.@.} ,.3.y.%.3.3.",
"4.u.s.u.$.j.@.#.5.$.=.{ 2.*.y.*.$.2.3.5.2.2.#.j.2.=.4.2.#.#.$.h.i.i.g.a.",
"*.2.,.a.$.$.{ ' =.5.} 5.$.2.*.y.q.=.3.h.4.3.2.>.r.9.s.2.$.5.4.*.l.@.$.-.",
"g.4.$.#.a.$.5.j.o.-._ #.$.$.4.} 2.>.a.+.l.*.#.{ $.s.5.4.5.j.+.*.a.| 5.4.",
"u.g.,.$.3.a.| $.5.4.a.5.*.g.u. .y.3.j.,._ $.2.4.2.*.3.3.$.5.5.4.5.#.$.+."
};
