/* XPM */
static char *_31ca60b91d14502f75b0cba92e3d2e3flQiYEr4v1y35XNf[] = {
/* columns rows colors chars-per-pixel */
"36 36 218 2 ",
"   c #5C5E18",
".  c #5F6E15",
"X  c #497F1C",
"o  c #6A680E",
"O  c #72710E",
"+  c #777614",
"@  c #6D7118",
"#  c #6F7321",
"$  c #7E7E2F",
"%  c #686A2E",
"&  c #807F15",
"*  c #8D7F3E",
"=  c #87783C",
"-  c #897848",
";  c #078E00",
":  c #158D01",
">  c #0F9601",
",  c #1C9602",
"<  c #179703",
"1  c #228F01",
"2  c #328F07",
"3  c #3C8A0A",
"4  c #229402",
"5  c #2A9603",
"6  c #239A02",
"7  c #2B9C03",
"8  c #339D04",
"9  c #3A9C06",
"0  c #379909",
"q  c #1FA003",
"w  c #25A302",
"e  c #2DA304",
"r  c #2DAC03",
"t  c #20AC02",
"y  c #34A305",
"u  c #3BA406",
"i  c #34AA04",
"p  c #3CAB06",
"a  c #3DA309",
"s  c #38A60C",
"d  c #36B105",
"f  c #3EB107",
"g  c #3BA915",
"h  c #4A9D0E",
"j  c #449D09",
"k  c #499914",
"l  c #5A9917",
"z  c #4E8B10",
"x  c #678516",
"c  c #788618",
"v  c #669915",
"b  c #74991B",
"n  c #41A307",
"m  c #40AB07",
"M  c #45A40A",
"N  c #4DA50D",
"B  c #45AB09",
"V  c #4BAC0A",
"C  c #53AD0D",
"Z  c #44B207",
"A  c #46B108",
"S  c #4DB20A",
"D  c #4DBB0A",
"F  c #52B30B",
"G  c #59BC0D",
"H  c #4DA415",
"J  c #43A710",
"K  c #59A911",
"L  c #67A51B",
"P  c #568D26",
"I  c #4F9421",
"U  c #599724",
"Y  c #7B8536",
"T  c #69992E",
"R  c #4EA420",
"E  c #52A12A",
"W  c #68A737",
"Q  c #52C20B",
"!  c #7D8A4B",
"~  c #7C8845",
"^  c #768954",
"/  c #7B8E53",
"(  c #73905E",
")  c #76A948",
"_  c #74B342",
"`  c #7B9E62",
"'  c #7BA36A",
"]  c #79A875",
"[  c #8D8D15",
"{  c #848518",
"}  c #908F1D",
"|  c #8A9B1B",
" . c #86971A",
".. c #929216",
"X. c #989B1A",
"o. c #87A31D",
"O. c #96A21F",
"+. c #A3A41A",
"@. c #A9AA1B",
"#. c #B3B41E",
"$. c #8B8824",
"%. c #908E25",
"&. c #959323",
"*. c #9C9B26",
"=. c #948D3C",
"-. c #88953B",
";. c #97903B",
":. c #999438",
">. c #88853E",
",. c #A7A828",
"<. c #A9A738",
"1. c #898441",
"2. c #888446",
"3. c #9A8C4C",
"4. c #968549",
"5. c #86944B",
"6. c #97964A",
"7. c #9A8A55",
"8. c #9F8F59",
"9. c #958451",
"0. c #8A9D58",
"q. c #9A9A57",
"w. c #A39B4B",
"e. c #A18E5C",
"r. c #A4945D",
"t. c #A59A5C",
"y. c #A79B59",
"u. c #87A85A",
"i. c #ACA35C",
"p. c #ABAB58",
"a. c #A3A244",
"s. c #989B63",
"d. c #9E9F6E",
"f. c #83996D",
"g. c #A69A61",
"h. c #AA9D63",
"j. c #A59968",
"k. c #89A666",
"l. c #99AE69",
"z. c #96AA67",
"x. c #9AB06A",
"c. c #95B065",
"v. c #86AB7C",
"b. c #9BAC75",
"n. c #ADA365",
"m. c #A9A56B",
"M. c #B0A467",
"N. c #B1A66A",
"B. c #B5AA6C",
"V. c #B8AC6F",
"C. c #A5AB75",
"Z. c #B9AE73",
"A. c #B6AD75",
"S. c #ADB37B",
"D. c #BAB077",
"F. c #BCB27A",
"G. c #B4B479",
"H. c #7DAF85",
"J. c #9CAD81",
"K. c #9CAD88",
"L. c #9EB085",
"P. c #9AB58B",
"I. c #9BAD93",
"U. c #9CBA94",
"Y. c #9BB39B",
"T. c #9BBB9C",
"R. c #9DB392",
"E. c #A2B483",
"W. c #A5BB89",
"Q. c #A9BE89",
"!. c #A1B48A",
"~. c #BEBC82",
"^. c #B3B38C",
"/. c #A6BA92",
"(. c #AFB48D",
"). c #8FBFA1",
"_. c #9DB6A2",
"`. c #9DB7A8",
"'. c #9EBCAB",
"]. c #9DBAA6",
"[. c #A0BEA7",
"{. c #C0BF8A",
"}. c #A9C28C",
"|. c #A7C291",
" X c #ADC594",
".X c #ABCD9A",
"XX c #A9C795",
"oX c #B5C29A",
"OX c #BFD89F",
"+X c #9EC2AD",
"@X c #9AC5A8",
"#X c #9FC5B3",
"$X c #9CC8B3",
"%X c #A1C4AB",
"&X c #A2CDAD",
"*X c #A6C9A3",
"=X c #B1C7A3",
"-X c #BACAA3",
";X c #ADD6A4",
":X c #ADD5AB",
">X c #B6D7A5",
",X c #B6D7A8",
"<X c #A2CBB3",
"1X c #A0CCBB",
"2X c #A5CBB0",
"3X c #ACD9B3",
"4X c #AED6BB",
"5X c #A4D0B6",
"6X c #B6D4B6",
"7X c #B5D8BA",
"8X c #C2C28C",
"9X c #C6DB9E",
"0X c #C7CCA8",
"qX c #C3D8A3",
"wX c #C9D2AE",
"eX c #C3D6B5",
"rX c #A3D3C3",
"tX c #ACD7C3",
/* pixels */
"F 7 p 3 u 7 6 e m u m m e a N v o.X.O.o.v K B y 6 8 V u u 8 e 7 7 u 4 6 ",
"f r 5 p u > B u 6 < 6 N l ,.#.@.@.@.@.@.@.@.| v 0 8 m 7 y V u B 7 7 7 4 ",
"M S m 7 M < G 7 u 7 b [ +.@.@.@.@.#.#.@.*.,.&.} @.O.C e y S 5 D w 6 7 n ",
"e u , d V u D u h | +.@.@.@.@.@.@.@.<.i.B.N.N.B.i.i.q.k h h 7 M y y t e ",
"y y Q B u V u h | @.@.@.@.@.@.+.*.:.i.B.B.B.N.h.h.B.N.N.g.U 8 m 7 S 6 u ",
"m < 8 n i B q  .@.@.@.@.@.@.+...&.N.N.7.B.B.g.7.n.B.B.B.B.V.I e p 9 B p ",
"i S p e 9 d N +.@.@.+...<.*.....i.V.8.9.r.V.B.V.r.B.B.B.7.B.B.k C F m 4 ",
"u V 8 u 8 a 0.X.X.a.8XG.{.N.&.;.B.B.B.B.B.V.B.V.B.B.B.8.h.B.M.q.u 7 n w ",
"e u 6 w u X C.B.~.8X8X8XZ.M.6.Z.B.B.V.n.m.S.S.S.2.h.V.h.V.B.B.y.x B C y ",
"B 5 8 p H G.{.{.{.{.G.Z.B.g.7.g.V.g.C. XqXqXqXqXC.% - N.B.V.h.i.[ L y 7 ",
"7 C 8 i u.{.{.{.{.{.e.N.B.B.r.r.j. X,X>X>X>X>XOX9X6.= = B.r.7.i.[ b V 8 ",
"B A 1 U ~.{.{.~.{.~.B.B.B.B.N.s.>X,X:X3X3X3X3X7X6X=X! * 3.M.M.r.{ [ K ; ",
", V y c.{.~.p.&.p.n.B.B.B.N.d.4XtXrXrX1X1XrXrXrXtX7Xf.1.* h.B.N.i...N u ",
"u 5 H ~.{.{.,.@.X.%.g.h.V.j.<XrXrX1X$X#X#X$X1XrXrX4Xb.-.* 4.B.B.N.[ l n ",
"B i U ~.{.~.%.+...%.7.r.N.U.tX5X<X%X%X[.[.%X%X<XrX3XU.! * * t.N.B.&.l 6 ",
"n h m.{.~.~.~.%...w.B.g.z.,X;X.XXX}.Q.Q.Q.}.|.%X1XrX@X^ 1.* t.g.h.:.L u ",
"8 H ~.~.~.~.~.9.w.N.B.N.XX;X.XXX|.W.E.E.E./.'.#X1XrX#X^ 2.* 3.9.- w.T 7 ",
"u T ~.~.~.~.~.Z.B.B.B.s.;X;XXX|.W.E.E.L.I.Y.'.#X1XrX#X^ 2.* 3.V.V.i.P 6 ",
"u 0.~.~.~.~.~.B.B.B.B.W.:X*XXX/.!.L.L.I.I.I.Y.[.%X5X*X! 1.* 3.V.B.g.l 5 ",
"9 m.~.~.~.~.D.N.N.B.m.4XrX1X#X`.Y.K.J.J.J.L.R.U.*X&XP.~ >.* 4.B.B.V.T u ",
"9 G.~.~.~.~.Z.B.h.B.d.tXrX1X+XY.L.J.J.J.J.K.R.T.*X&Xv.! 1.* 3.V.g.B.H p ",
"u 5.~.~.~.~.B.g.7.M.b.:X&X%X+X_.Y.I.I.I.Y._.'.#XrXtXf.! 1.* r.8.8.Z., u ",
"k V.F.F.~.N.B.B.V.N.E.;X5X1X#X'._._.Y._._.'.+X<X1X2X/ Y * * t.g.r.n.a u ",
"H D.D.D.F.g.N.B.B.n.W.6XrXrX$X+X]._.Y.Y.Y.T.@X@X&XP.~ $ * * N.g.Z.5.u B ",
"l D.D.D.D.Z.B.B.B.N.oX6X2X$X@XT.T.T.T.T.T.@X$X5X&X( # O + * y.} :.P 7 a ",
"J V.D.D.D.Z.B.B.B.N.(.=X*X&X$X$X#X#X#X$X1X5X@X] ' u.0.5.  o c x 3 , h j ",
"a m.D.D.D.Z.B.g.h.N.(.eX6X4XrXrXrX1X$X$X@XH.] ' k.z.x.c.W k 3 a : w i n ",
"y q.D.D.D.Z.n.7.g.B.(.eXeX6X5X<X$X$X).H.] ' k.l.l.u.W 8 8 F 5 y 9 8 S 8 ",
"F P V.D.D.Z.B.V.h.V.j.wX-X=X=X*XT.v.' ' z.x.u.W B F f y u f y f 7 i F f ",
"u 3 8.N.D.D.Z.B.B.B.h.0X0X-X Xk.` k.z.x.) J 7 y d w M 9 6 G 7 w r F 6 7 ",
"y V q.g.h.r.r.B.B.B.N.^.oXz.0.k.c.) R p > e 7 8 , y p i 8 5 6 7 4 , V A ",
"n M Y 6.g.g.N.B.B.;.y.r.0.u.) E e u e n 7 u 7 9 8 p 7 4 5 , e y n 2 y u ",
"y B c c ;.g.h.i.:.[ } ;.5.h n 8 7 y u u y y 6 S y 9 i y 6 7 7 A M M Z m ",
"y p g -.+ $.=.{ ........$.U y n z 9 u Z r u y w j f V y 7 p i 8 F 5 7 u ",
"_ u.x.5.5.Y O O & [ { . 2 8 i , y 7 B 4 C y 6 : 7 V p i m S 4 8 B < p i ",
"x.l.l.l.x.x.0.% @ l N a 8 Z m < n u F e : 7 y i y 8 u u 7 u p i u 7 7 4 "
};
