/* XPM */
static char *_fdd44cfcea34b99a711a59fd5186a3c[] = {
/* columns rows colors chars-per-pixel */
"36 48 55 1 ",
"  c #3AA30D",
". c #489A0F",
"X c #3F9D10",
"o c #399E0C",
"O c #3EA50E",
"+ c #38A00C",
"@ c #3CA20D",
"# c #38A30C",
"$ c #349F0B",
"% c #35A10C",
"& c #41980D",
"* c #F8B81B",
"= c #309E0A",
"- c #FFBC1C",
"; c #E2AF1F",
": c #C9AC1A",
"> c #899719",
", c #549611",
"< c #5B9413",
"1 c #5F9912",
"2 c #759115",
"3 c #F2B41B",
"4 c #A17F24",
"5 c #C3A41B",
"6 c #C69818",
"7 c #DAD4C6",
"8 c #AE975C",
"9 c #B5A52B",
"0 c #D7AF1E",
"q c #D39E1B",
"w c #6D9C12",
"e c #959718",
"r c #799615",
"t c #369A0D",
"y c #7A9E14",
"u c #819316",
"i c #8DA515",
"p c #608D14",
"a c #9AA217",
"s c #D2AC1B",
"d c #829B16",
"f c #699415",
"g c #6C9B38",
"h c #DEA518",
"j c #E3A918",
"k c #E7AD1B",
"l c #BB9837",
"z c #916E14",
"x c #D3B25E",
"c c #D5B15A",
"v c #AC9618",
"b c #659154",
"n c #4F7B21",
"m c #6E905E",
"M c #577A23",
/* pixels */
"O%#$%+@#$@+= %#$%+@#$@+= %#$%+@#$@+=",
" OO%% OO @ # OO%% OO @ # OO%% OO @ #",
" oX..&+$$$tO#oX..&+$$$tO#oX..&+$$$tO",
"Xg9009>diypoXg9009>diypoXg9009>diypo",
"m7cjx7863*s,b7cjx7863*s,b7cjx7863*s1",
"Ml4z;8463-->nl4z;8463-->nl4z;8463--e",
"&vqqkh**-*;w&vqqkh**-*;w&vqqkh**-*;r",
"=f5::;:5awu,=f5::;:5awu,=f5::;:5awu<",
"$1rX.e<2&o2,%1rX.e<2&o2,%1rX.e<2&o2,",
" <1#X>.X@@.O <1#X>.X@@.O <1#X>.X@@.@",
"O++ o&+$#=$@O++ o&+$#=$@O++ o&+$#=%@",
" $$$%+ $@  % $$$%+ $@  % $$$%+ $@  $",
"O+%%%+@#$@#= +%%%+@#$@#= +%%%+@#$@#=",
" OO%% OO @ # OO%% OO @ # OO%% OO @ #",
" oX..&+$$$tO#oX..&+$$$tO#oX..&+$$$tO",
"Xg9009>diypoXg9009>diypoXg9009>diypo",
"m7cjx7863*s,b7cjx7863*s,b7cjx7863*s1",
"Ml4z;8463-->nl4z;8463-->nl4z;8463--e",
"&vqqkh**-*;w&vqqkh**-*;w&vqqkh**-*;r",
"=f5::;:5awu,=f5::;:5awu,=f5::;:5awu<",
"$1rX.e<2&o2,%1rX.e<2&o2,%1rX.e<2&o2,",
" <1#X>.X@@.O <1#X>.X@@.O <1#X>.X@@.@",
"O++ o&+$#=$@O++ o&+$#=$@O++ o&+$#=%@",
" $$$%+ $@  % $$$%+ $@  % $$$%+ $@  $",
"O+%%%+@#$@#= +%%%+@#$@#= +%%%+@#$@#=",
" OO%% OO @ # OO%% OO @ # OO%% OO @ #",
" oX..&+$$$tO#oX..&+$$$tO#oX..&+$$$tO",
"Xg9009>diypoXg9009>diypoXg9009>diypo",
"m7cjx7863*s,b7cjx7863*s,b7cjx7863*s1",
"Ml4z;8463-->nl4z;8463-->nl4z;8463--e",
"&vqqkh**-*;w&vqqkh**-*;w&vqqkh**-*;r",
"=f5::;:5awu,=f5::;:5awu,=f5::;:5awu<",
"$1rX.e<2&o2,%1rX.e<2&o2,%1rX.e<2&o2,",
" <1#X>.X@@.O <1#X>.X@@.O <1#X>.X@@.@",
"O++ o&+$#=$@O++ o&+$#=$@O++ o&+$#=%@",
" $$$%+ $@  % $$$%+ $@  % $$$%+ $@  $",
"O+%%%+@#$@#= +%%%+@#$@#= +%%%+@#$@#=",
" OO%% OO @ # OO%% OO @ # OO%% OO @ #",
" oX..&+$$$tO#oX..&+$$$tO#oX..&+$$$tO",
"Xg9009>diypoXg9009>diypoXg9009>diypo",
"m7cjx7863*s,b7cjx7863*s,b7cjx7863*s1",
"Ml4z;8463-->nl4z;8463-->nl4z;8463--e",
"&vqqkh**-*;w&vqqkh**-*;w&vqqkh**-*;r",
"=f5::;:5awu,=f5::;:5awu,=f5::;:5awu<",
"$1rX.e<2&o2,%1rX.e<2&o2,%1rX.e<2&o2,",
" <1#X>.X@@.O <1#X>.X@@.O <1#X>.X@@.@",
"O++ o&+$#=$@O++ o&+$#=$@O++ o&+$#=$@",
" %$=%o $@  + %$=%o $@  + %$=%o $@  %"
};
