/* XPM */
static char *_bbbd26c15d74385f6c3fc075d99c98fAJj9eZxma0wZRNHN[] = {
/* columns rows colors chars-per-pixel */
"36 36 202 2 ",
"   c gray1",
".  c #133610",
"X  c #152B34",
"o  c #1A3A2F",
"O  c #2B3333",
"+  c #453C29",
"@  c #165010",
"#  c #225905",
"$  c #3A5C04",
"%  c #1B6D02",
"&  c #126E00",
"*  c #0E7601",
"=  c #1B7502",
"-  c #1C7F02",
";  c #177903",
":  c #196810",
">  c #227302",
",  c #247A02",
"<  c #2C7C04",
"1  c #267206",
"2  c #2F6611",
"3  c #307209",
"4  c #1C4327",
"5  c #21432F",
"6  c #2F463D",
"7  c #2F712F",
"8  c #407218",
"9  c #585835",
"0  c #45442C",
"q  c #625736",
"w  c #487A2C",
"e  c #7E6C30",
"r  c #707B2E",
"t  c #0F2D42",
"y  c #173B4B",
"u  c #243E49",
"i  c #203542",
"p  c #2E3D58",
"a  c #433D50",
"s  c #284447",
"d  c #374F5A",
"f  c #3B4E59",
"g  c #305E58",
"h  c #10537F",
"j  c #365668",
"k  c #45484A",
"l  c #4F524A",
"z  c #565749",
"x  c #565D53",
"c  c #6A6743",
"v  c #7A6B4F",
"b  c #766C4B",
"n  c #6B6954",
"m  c #7C6D50",
"M  c #76715A",
"N  c #44717F",
"B  c #4C6673",
"V  c #86732A",
"C  c #806D41",
"Z  c #8A7847",
"A  c #90794D",
"S  c #897754",
"D  c #098B00",
"F  c #158A01",
"G  c #1D8C02",
"H  c #1C8502",
"J  c #0D9301",
"K  c #149401",
"L  c #1B9402",
"P  c #159A02",
"I  c #1C9B02",
"U  c #238302",
"Y  c #238A02",
"T  c #2B8B03",
"R  c #2B8203",
"E  c #328404",
"W  c #338D06",
"Q  c #398B06",
"!  c #3A880A",
"~  c #3A8208",
"^  c #239402",
"/  c #2A9403",
"(  c #239B02",
")  c #2B9C03",
"_  c #2E9808",
"`  c #339404",
"'  c #339D04",
"]  c #3A9B06",
"[  c #389308",
"{  c #25A203",
"}  c #2DA203",
"|  c #24AA02",
" . c #2BAD02",
".. c #34A405",
"X. c #3BA306",
"o. c #34AB05",
"O. c #3CAB06",
"+. c #3DB107",
"@. c #34B204",
"#. c #418E04",
"$. c #429506",
"%. c #449C08",
"&. c #4B9C0B",
"*. c #409D06",
"=. c #448C17",
"-. c #41A407",
";. c #41AA07",
":. c #44A409",
">. c #49A609",
",. c #44AA08",
"<. c #4AAB0A",
"1. c #51AE0B",
"2. c #45B108",
"3. c #4DB30B",
"4. c #4AB909",
"5. c #53B30C",
"6. c #50B90B",
"7. c #59BC0D",
"8. c #57A510",
"9. c #519523",
"0. c #5D883B",
"q. c #6D8D3F",
"w. c #7E823E",
"e. c #60A928",
"r. c #52C20B",
"t. c #779D4C",
"y. c #68A855",
"u. c #848230",
"i. c #9F8337",
"p. c #A1872F",
"a. c #BD9739",
"s. c #C29B3B",
"d. c #8F834C",
"f. c #97895A",
"g. c #A3925A",
"h. c #BB9C4D",
"j. c #A38B63",
"k. c #AC9664",
"l. c #B1996D",
"z. c #A69774",
"x. c #8EA96E",
"c. c #B9A573",
"v. c #CEB36D",
"b. c #D0B66E",
"n. c #D1B86E",
"m. c #CFB875",
"M. c #C7B272",
"N. c #D3BB77",
"B. c #D5BE79",
"V. c #D0B771",
"C. c #C9AD63",
"Z. c #3F7089",
"A. c #446D84",
"S. c #4A758C",
"D. c #4D788E",
"F. c #507990",
"G. c #708480",
"H. c #75949E",
"J. c #9A9681",
"K. c #B8AD8D",
"L. c #A1B185",
"P. c #ACB991",
"I. c #B1B597",
"U. c #BAB797",
"Y. c #9DB2AE",
"T. c #D0BD85",
"R. c #CEBF9A",
"E. c #C2BDA1",
"W. c #ADC18C",
"Q. c #BACA9A",
"!. c #BFC2A9",
"~. c #D8C283",
"^. c #D6C58E",
"/. c #DCC88C",
"(. c #DBCC9A",
"). c #E0CF9A",
"_. c #E1D097",
"`. c #E4D39B",
"'. c #C9C7A4",
"]. c #D7CDA8",
"[. c #CDD4AE",
"{. c #C6C5B5",
"}. c #D8D5BA",
"|. c #D2CEB6",
" X c #ECDDAD",
".X c #E6D7A9",
"XX c #E8DEBB",
"oX c #EDE0B3",
"OX c #F1E6BD",
"+X c #D9DACF",
"@X c #EAE8CB",
"#X c #F5EDCA",
"$X c #F8EFCD",
"%X c #F4EBC6",
"&X c #EAE9D0",
"*X c #FAF4D4",
"=X c #FCF6DA",
"-X c #FFF9DD",
";X c #F5F4D9",
":X c #F3EDD2",
">X c #FFFDE1",
",X c #FAF9F3",
/* pixels */
"5.) O.! X.) ( } ;.X.O.O.} ....} ..X.>.{ o.2.,...( ' <.X.X.` { / / X.^ ( ",
"+.o.^ O.X.J ,.X.( P ( :.^ ' ,.' :.( ' -.' -.( J ) ) ;.) ..1.X.;./ / / ^ ",
":.3.;.) :.K 7.) X.) ..' I o.( ^ ..) ..:.3.O.X.O.o.K 2.} ..3./ 6.{ ( ) -.",
"} X.^ o.<.X.6.X.' X...( +.,.) 7.,.{ ' X.<.3.-.6.I L ' O.:.&./ -.....| } ",
"....r.,.] <.X.X.X...} ^ ..,.{ 1.] ( o.,.) ' O.X.<.<.O.>.' ;.' ,.{ 3.( X.",
";.P ' X...,.I X.O.) X.,.X.' ^ ;.] X.X.X...>.5.{ ` e.P.L.x.9.{ } O.] 2.O.",
"o.3.O.} X.@.' 2.O./ :.o.I } ..w I.I.0.2.3.3._ I |.>X-X-X-X@X: ) 1.5.;.^ ",
"X.<.' X.' [ N @ ' ,.X.6.' Y U.-X-X-X-X[.'.&X&X[.=X-X-X-X-X-XXX#...) -.{ ",
"..X.( { ` g S.j 7 ^ t.W.Q.P.>X-X-X-X-X-X-X-X-X-X=X#X-X-X-X$X@XE ) ;.1...",
",./ ` O.7 D.S.S.S.!.>X-X-X-X-X-X-X-X-X-X-X-X-X-X-X.X`.=X%XB.m.! ' ,.o.} ",
"/ 1.' o.s S.S.D.Y.-X-X-X-X-X-X-X-X-X-X-X-X-X-X-X-X=X.X~.n.B.3 O.2.( <.' ",
",.2.^ 2.4 A.F.h +X-X-X-X-X-X-X-X-X-X-X-X-X-X-X-X-X-X-X-X.Xd.<.' / ) X.D ",
"L <...+.~ i G.&X-X-X-X-X-X-X-X-X-X-X-X-X-X-X-X-X-X-X-X-X;X1 } X.X.| O.X.",
"X./ 3...:.w >X-X-X-X-X-X-X-X-X-X-X-X-X-X-X-X-X-X-X-X-X-X=Xu.' ..L 3.' -.",
"<.o.<.3.<.!.=X-X-X-X-X-X-X-X-X-X-X-X-X-X-X-X-X-X-X-X-X=X/.g.^ } L ;.O.I ",
"-.:.) ^ $.:X-X-X-X-X-X-X-X-X-X-X-X-X-X-X-X-X-X-X*X-X-X-X`.r ' I ..X.7.X.",
") O.( ;.=.=X-X-X-X-X-X-X-X-X-X-X-X>X*X-X-X-X}.B J.:X>X=X;X- ] / O.>.,.) ",
"X.,.:.( =.=X-X-X-X-X-X-X-X-X-X-XR.c.k.].-X{.p D.Z.A.H.A.}.r O.I ' 6.X.( ",
"X.<.} K y.>X-X-X-X-X-X-X-X-X-XU.l.l.l.S  Xf B S.S.S.S.A.x g.^ ^ O.) <./ ",
"' O.X.L x.-X-X-X-X-X-X-X-X-X@XA l.l.l.S m.a j S.S.S.S.j M w...3.+.( ;.X.",
"../ ( X.t.%X-X-X-X-X-X-X=X=X'.j.l.l.j.K.T.).k t d j d t M.8.) ) K X.o.O.",
"o...' o.9.`.-X-X-X-X-X-X=XoXK.S j.z.|.}.^. X#XE.n l M c.8 3...) ..1.K X.",
") ) } ) / q.=X-X-X-X-X*X.X`.(.n   {.,X@X/.#X-X-X*X`.k.S 2 { K O./ } ..X.",
"2.J ( } } W ^.OX$X#XoX`.`.`.(.,X+X,XXX^.`.-X-X=X XN.f.m 9 ^ ' ,.+.) X.;.",
"&.^ +.} ..L f.`.`.`.`.`.`.`.`.}.|./.N.V.~.)./.n.B.B.S m c O.] *.;.' ) -.",
"O...L / ' ` # v.`.`.`.`.`.`.`._.`.B.N.N.N.N.N.V.B.g.v v c %.) ^ I L &.%.",
"O.;.( ] / Y G V b./._.`.`.`.`./.B.N.B.B.B.b.V.v.Z v m b 6 $.T ' F { o.-.",
"..O.o.` L K $.< q V.V.B.~.~.B.V.N.N.B.N.V.a.p.+ O l k s 5 :.U ` ` ' 3.) ",
"5.}  .&.G H Q $.. b V.B.B.N.V.B.V.N.V.V.h.9 1 . X u u o > ` / X./ ..3.+.",
"X.] Y ;.` 1.Y R > ~ 1 Z h.i.$ e v.v.C.s.Z O % , = @ # < = &.T ( | 1.^ ) ",
"..3.O.X.) / G ` Q Q E ! 1 > < > 0 V C z s o % > & , R Y U Y ^ ( ^ I <.2.",
"X.:.O.' X.G H [ E ~ R ; > > > & . X y u i # = > , T - - U F ) ' -.W X.X.",
"..-.<.,.) 3.T ^ ) Y E * , , < , = @ 4 4 % U = Q U E ) / Y ^ / 2.:.:.2.,.",
"' ..} ,.) / K G ` ..F ' U T U E 3 < W [ Y T T G Q ' %.' / O.o.' 5./ / X.",
"2.o.) ( ,./ O.3.Q ] D ^ / / ) F / ^ ] U >./ ^ F / :.....O.3.^ ' ,.P O.o.",
";.2.} ) X.;.P ) O.o.,.O.' ;.O.I -.X.3.} F / ' ....) X.X./ X.O.o.X.( ) ^ "
};
