/* XPM */
static char *_2b4e2abdec5443cf9dacf15f553f04bqWUDvfPL2DHyHy9K[] = {
/* columns rows colors chars-per-pixel */
"18 18 168 2 ",
"   c #FFF9DD",
".  c #36A205",
"X  c #34A205",
"o  c #30A204",
"O  c #3BA806",
"+  c #FEF8DB",
"@  c #39A206",
"#  c #2A9B04",
"$  c #3CA307",
"%  c #2CA004",
"&  c #3CA506",
"*  c #2EA204",
"=  c #37A605",
"-  c #42A908",
";  c #32A005",
":  c #D4BC77",
">  c #E4D39B",
",  c #339A05",
"<  c #309F04",
"1  c #217302",
"2  c #299F04",
"3  c #39A506",
"4  c #36A305",
"5  c #3DA707",
"6  c #3EA507",
"7  c #38A105",
"8  c #279B03",
"9  c #42AC08",
"0  c #2E9605",
"q  c #31A505",
"w  c #3CA906",
"e  c #CDB164",
"r  c #359F06",
"t  c #289803",
"y  c #40A807",
"u  c #209002",
"i  c #32A304",
"p  c #218402",
"a  c #34A705",
"s  c #F2EED4",
"d  c #40AC07",
"f  c #2C9704",
"g  c #3CAC06",
"h  c #389E06",
"j  c #349D05",
"k  c #446D82",
"l  c #248102",
"z  c #318B04",
"x  c #F8EFCD",
"c  c #F1E7C0",
"v  c #2D9B04",
"b  c #2F9F04",
"n  c #319C05",
"m  c #2C9E03",
"M  c #43A709",
"N  c #359D07",
"B  c #217B01",
"V  c #8F7F58",
"C  c #E0D4AD",
"Z  c #194A20",
"A  c #5E5743",
"S  c #FBF4D4",
"D  c #335B5E",
"F  c #2A7E03",
"G  c #C3B997",
"H  c #B1996D",
"J  c #6A7C85",
"K  c #43687D",
"L  c #5C9C34",
"P  c #80BD61",
"I  c #216506",
"U  c #DFCB8F",
"Y  c #F0E4BB",
"T  c #37862B",
"R  c #AABE74",
"E  c #588F59",
"W  c #276A13",
"Q  c #978F47",
"!  c #454F47",
"~  c #AE9D7C",
"^  c #7C6E50",
"/  c #97AF70",
"(  c #ADBDB7",
")  c #8F8973",
"_  c #D7D7BA",
"`  c #849999",
"'  c #75AF49",
"]  c #9F8961",
"[  c #327E12",
"{  c #558425",
"}  c #F4ECCA",
"|  c #BFD4A2",
" . c #595A4D",
".. c #A7A6A0",
"X. c #3A432B",
"o. c #47850B",
"O. c #387548",
"+. c #D8C283",
"@. c #89AA51",
"#. c #EDE0B3",
"$. c #2E9003",
"%. c #756840",
"&. c #2E8604",
"*. c #82857D",
"=. c #C7B478",
"-. c #539E25",
";. c #B8A469",
":. c #A18C4F",
">. c #9BC274",
",. c #8EBC61",
"<. c #98994F",
"1. c #43A309",
"2. c #D4D8C3",
"3. c #4B5A59",
"4. c #3A6716",
"5. c #1F432F",
"6. c #3D6E8A",
"7. c #3E9513",
"8. c #AA956C",
"9. c #B4AC6F",
"0. c #398905",
"q. c #6B9F29",
"w. c #C6BEA0",
"e. c #387621",
"r. c #5D655A",
"t. c #E8E0C3",
"y. c #8BB56A",
"u. c #45AC09",
"i. c #DCDFCC",
"p. c #4BA410",
"a. c #49748B",
"s. c #249802",
"d. c #36701F",
"f. c #E0D3A2",
"g. c #C0A65F",
"h. c #235221",
"j. c #92C863",
"k. c #3B990A",
"l. c #D1B772",
"z. c #2A8E03",
"x. c #7B7950",
"c. c #9B9B59",
"v. c #A6B87B",
"b. c #CEC3A2",
"n. c #DAC686",
"m. c #E2D7B5",
"M. c #246D05",
"N. c #DAC992",
"B. c #E5D59E",
"V. c #C6D5A6",
"C. c #D8DFBA",
"Z. c #1F9E03",
"A. c #EFE3BA",
"S. c #3F9E08",
"D. c #A0C178",
"F. c #C9B372",
"G. c #238803",
"H. c #2D8305",
"J. c #DCCB97",
"K. c #E7D7A3",
"L. c #F9F5D9",
"P. c #2C9504",
"I. c #49AF09",
"U. c #D5BE7A",
"Y. c #268502",
"T. c #37A705",
"R. c #249C03",
"E. c #DCC889",
/* pixels */
"g N % X * 3 b 7 . @ O 2 # 6 $ X v s.",
"5 o @ u.. < a ; X @ I.9 Z.= M 3 % * ",
"* 9 y X = . @ . r w . O p.' -.o O T.",
"- @ N T 7 d 8 y._ >.j.P s   L.L - ; ",
"4 b O.k E V.C.          } x Y @.3 & ",
"- i D 6.i.              + A.=.k.* ; ",
"; g e.2.                    v.X a & ",
"M $ ,.+                 + + 9.8 X w ",
"O X D.          m.C s J ` ( / % 9 . ",
"6 R.|         b.H ] ) K a.k x.n q $ ",
"i < R       x ~ 8.G J.*.3.r.q.< 4 q ",
"2 % 7.c S c B.w...t.#.+ K.V [ o o O ",
"7 m v c.> > > f.N.: +.U.F.^ { , 2 S.",
"w j u o.;.E.U n.: : e :.A  .d.$.t O ",
"6 h 0 z 4.<.g.Q l.e %.I Z h.&.f . = ",
"y & f z.0.H.1 1 X.! 5.1 B p p # 0 - ",
"= y X u 0 G.l F M.W l Y.z , # 4 1.& ",
"d m $ q h # n 8 , r P.t j . O o o o "
};
